<svg width="31" height="30" viewBox="0 0 31 30" fill="none" xmlns="http://www.w3.org/2000/svg">
<path d="M15.5076 7.61072C11.108 7.61072 7.55925 10.9976 7.55925 15.1966C7.55925 19.3956 11.108 22.7825 15.5076 22.7825C19.9072 22.7825 23.456 19.3956 23.456 15.1966C23.456 10.9976 19.9072 7.61072 15.5076 7.61072ZM15.5076 20.1284C12.6645 20.1284 10.3401 17.9167 10.3401 15.1966C10.3401 12.4765 12.6576 10.2648 15.5076 10.2648C18.3577 10.2648 20.6751 12.4765 20.6751 15.1966C20.6751 17.9167 18.3508 20.1284 15.5076 20.1284ZM25.635 7.30042C25.635 8.28414 24.8049 9.0698 23.7811 9.0698C22.7504 9.0698 21.9272 8.27754 21.9272 7.30042C21.9272 6.32331 22.7573 5.53105 23.7811 5.53105C24.8049 5.53105 25.635 6.32331 25.635 7.30042ZM30.8994 9.09621C30.7818 6.72604 30.2145 4.62655 28.3952 2.89679C26.5828 1.16703 24.383 0.625654 21.8995 0.506816C19.34 0.368171 11.6683 0.368171 9.1088 0.506816C6.63229 0.619052 4.43248 1.16043 2.61314 2.89019C0.793799 4.61995 0.23347 6.71944 0.108953 9.08961C-0.0363176 11.5324 -0.0363176 18.8542 0.108953 21.297C0.226553 23.6671 0.793799 25.7666 2.61314 27.4964C4.43248 29.2262 6.62537 29.7675 9.1088 29.8864C11.6683 30.025 19.34 30.025 21.8995 29.8864C24.383 29.7741 26.5828 29.2328 28.3952 27.4964C30.2076 25.7666 30.7749 23.6671 30.8994 21.297C31.0446 18.8542 31.0446 11.539 30.8994 9.09621ZM27.5927 23.918C27.0532 25.212 26.0086 26.209 24.6458 26.7305C22.6051 27.503 17.7628 27.3247 15.5076 27.3247C13.2525 27.3247 8.4032 27.4964 6.36942 26.7305C5.01356 26.2156 3.969 25.2186 3.4225 23.918C2.61314 21.9704 2.79992 17.3489 2.79992 15.1966C2.79992 13.0443 2.62006 8.41619 3.4225 6.47516C3.96208 5.18114 5.00664 4.18421 6.36942 3.66264C8.41012 2.89019 13.2525 3.06845 15.5076 3.06845C17.7628 3.06845 22.612 2.89679 24.6458 3.66264C26.0017 4.17761 27.0462 5.17453 27.5927 6.47516C28.4021 8.42279 28.2153 13.0443 28.2153 15.1966C28.2153 17.3489 28.4021 21.977 27.5927 23.918Z" fill="black"/>
</svg>
