<svg width="35" height="24" viewBox="0 0 35 24" fill="none" xmlns="http://www.w3.org/2000/svg">
<path d="M34.1481 4.21711C33.7541 2.80106 32.5931 1.68583 31.119 1.30736C28.447 0.619629 17.7328 0.619629 17.7328 0.619629C17.7328 0.619629 7.01869 0.619629 4.34668 1.30736C2.87256 1.68589 1.71156 2.80106 1.31751 4.21711C0.601562 6.78378 0.601562 12.1389 0.601562 12.1389C0.601562 12.1389 0.601562 17.494 1.31751 20.0607C1.71156 21.4767 2.87256 22.5455 4.34668 22.924C7.01869 23.6117 17.7328 23.6117 17.7328 23.6117C17.7328 23.6117 28.447 23.6117 31.119 22.924C32.5931 22.5455 33.7541 21.4767 34.1481 20.0607C34.8641 17.494 34.8641 12.1389 34.8641 12.1389C34.8641 12.1389 34.8641 6.78378 34.1481 4.21711ZM14.2287 17.001V7.27686L23.1836 12.139L14.2287 17.001Z" fill="black"/>
</svg>
